<svg aria-hidden="true" style="position:absolute;width:0;height:0;overflow:hidden" xmlns="http://www.w3.org/2000/svg">
    <defs>
        <symbol id="icon-call" viewBox="0 0 32 32">
            <path  d="M14.667 4.333h2.667c4.341 0 8.108 2.443 10.012 6.027-1.191-4.985-5.663-8.694-11.012-8.694h-0.667c-5.349 0-9.821 3.709-11.012 8.694 1.904-3.584 5.671-6.027 10.012-6.027z"/>
            <path  d="M4.409 12.015c-0 0-0 0-0 0-0.184 0-0.333-0.149-0.333-0.333 0-0.013 0.001-0.027 0.002-0.040l-0 0.002c0.681-5.878 5.663-10.311 11.589-10.311h0.667c5.917 0 10.899 4.426 11.587 10.295 0.001 0.010 0.002 0.022 0.002 0.034 0 0.184-0.149 0.333-0.333 0.333-0.168 0-0.308-0.125-0.33-0.287l-0-0.002c-0.649-5.533-5.345-9.706-10.925-9.706h-0.667c-5.587 0-10.285 4.179-10.927 9.721-0.020 0.167-0.16 0.295-0.33 0.295-0 0-0 0-0 0v0z"/>
            <path  d="M27.345 10.694c-0 0-0 0-0 0-0.127 0-0.237-0.071-0.293-0.176l-0.001-0.002c-1.882-3.506-5.523-5.85-9.712-5.85-0.002 0-0.004 0-0.006 0h-2.666c-0.002 0-0.004 0-0.006 0-4.188 0-7.829 2.344-9.682 5.791l-0.029 0.059c-0.057 0.106-0.168 0.177-0.295 0.177-0.184 0-0.333-0.149-0.333-0.333 0-0.028 0.003-0.055 0.010-0.080l-0 0.002c1.252-5.17 5.839-8.949 11.309-8.949 0.009 0 0.019 0 0.029 0h0.665c0.008-0 0.017-0 0.027-0 5.47 0 10.058 3.78 11.293 8.871l0.016 0.079c0.006 0.023 0.009 0.050 0.009 0.077 0 0.184-0.149 0.333-0.333 0.333v0zM14.667 4h2.667c3.422 0 6.609 1.489 8.797 4.007-1.846-3.592-5.526-6.007-9.77-6.007-0.009 0-0.019 0-0.029 0h-0.665c-0.008-0-0.018-0-0.027-0-4.244 0-7.924 2.415-9.742 5.945l-0.029 0.061c2.145-2.461 5.285-4.007 8.787-4.007 0.004 0 0.008 0 0.011 0h-0.001z"/>
            <path d="M8.986 5.010c-0 0-0 0-0.001 0-0.184 0-0.333-0.149-0.333-0.333 0-0.105 0.048-0.198 0.124-0.26l0.001-0c1.87-1.505 4.274-2.416 6.89-2.417h0.667c1.566 0 3.078 0.321 4.495 0.953 0.117 0.053 0.197 0.17 0.197 0.304 0 0.184-0.149 0.333-0.333 0.333-0.049 0-0.096-0.011-0.138-0.030l0.002 0.001c-1.234-0.566-2.677-0.895-4.198-0.895-0.009 0-0.018 0-0.027 0h-0.665c-0 0-0 0-0.001 0-2.457 0-4.715 0.856-6.492 2.285l0.020-0.016c-0.056 0.046-0.129 0.074-0.208 0.074-0 0-0 0-0.001 0h0z"/>
            <path  d="M4.333 21.667h0.667v-8h-0.667c-1.473 0-2.667 1.194-2.667 2.667v0 2.667c0 1.473 1.194 2.667 2.667 2.667v0z"/>
            <path  d="M3.707 21.926c-0.001 0-0.001 0-0.002 0-0.027 0-0.054-0.003-0.079-0.010l0.002 0c-1.326-0.325-2.295-1.504-2.295-2.909 0-0.003 0-0.006 0-0.009v0-2.667c0.001-1.381 0.934-2.544 2.204-2.894l0.021-0.005c0.027-0.008 0.059-0.013 0.091-0.013 0.184 0 0.333 0.149 0.333 0.333 0 0.155-0.106 0.286-0.25 0.323l-0.002 0.001c-1.004 0.276-1.729 1.181-1.73 2.255v2.667c0 0.002 0 0.005 0 0.007 0 1.092 0.753 2.008 1.768 2.258l0.016 0.003c0.149 0.035 0.258 0.167 0.258 0.325 0 0.184-0.149 0.333-0.333 0.333-0.001 0-0.001 0-0.002 0h0z"/>
            <path  d="M2.333 19.333c-0.184 0-0.333-0.149-0.333-0.333v0-2.667c0-1.008 0.643-1.899 1.601-2.215 0.030-0.010 0.065-0.016 0.101-0.016 0.184 0 0.333 0.149 0.333 0.333 0 0.145-0.093 0.268-0.222 0.314l-0.002 0.001c-0.67 0.226-1.144 0.848-1.144 1.581 0 0.001 0 0.001 0 0.002v-0 2.667c0 0.184-0.149 0.333-0.333 0.333v0z"/>
            <path  d="M6.667 23h-0.667c-0.552 0-1-0.448-1-1v0-8.667c0-0.552 0.448-1 1-1v0h0.667c0.552 0 1 0.448 1 1v0 8.667c0 0.552-0.448 1-1 1v0z"/>
            <path  d="M6.667 23.333h-0.667c-0.735 0-1.333-0.598-1.333-1.333v-8.667c0-0.735 0.598-1.333 1.333-1.333h0.667c0.735 0 1.333 0.598 1.333 1.333v8.667c0 0.735-0.598 1.333-1.333 1.333zM6 12.667c-0.367 0-0.667 0.299-0.667 0.667v8.667c0 0.367 0.299 0.667 0.667 0.667h0.667c0.367 0 0.667-0.299 0.667-0.667v-8.667c0-0.367-0.299-0.667-0.667-0.667h-0.667z"/>
            <path d="M5.667 21.667c-0.184 0-0.333-0.149-0.333-0.333v0-8c0-0.367 0.299-0.667 0.667-0.667h0.333c0.184 0 0.333 0.149 0.333 0.333s-0.149 0.333-0.333 0.333v0h-0.333v8c0 0.184-0.149 0.333-0.333 0.333v0z"/>
            <path  d="M18.333 29.667h-4.667c-0.184 0-0.333-0.149-0.333-0.333s0.149-0.333 0.333-0.333v0h4.667c3.449 0 6.639-2.012 8.126-5.126 0.058-0.105 0.167-0.174 0.293-0.174 0.184 0 0.334 0.15 0.334 0.334 0 0.046-0.009 0.090-0.026 0.13l0.001-0.002c-1.598 3.344-5.023 5.505-8.728 5.505z"/>
            <path  d="M18.333 30.333h-4c-0.368 0-0.667-0.298-0.667-0.667v0-0.667c0-0.368 0.298-0.667 0.667-0.667v0h4c0.368 0 0.667 0.298 0.667 0.667v0 0.667c0 0.368-0.298 0.667-0.667 0.667v0z"/>
            <path  d="M18.333 30.667h-4c-0.551 0-1-0.449-1-1v-0.667c0-0.551 0.449-1 1-1h4c0.551 0 1 0.449 1 1v0.667c0 0.551-0.449 1-1 1zM14.333 28.667c-0.184 0-0.333 0.149-0.333 0.333v0 0.667c0 0.184 0.149 0.333 0.333 0.333v0h4c0.184 0 0.333-0.149 0.333-0.333v0-0.667c0-0.184-0.149-0.333-0.333-0.333v0h-4z"/>
            <path d="M14.333 29.667c-0.184 0-0.333-0.149-0.333-0.333v0-0.667h3.667c0.184 0 0.333 0.149 0.333 0.333s-0.149 0.333-0.333 0.333v0h-3c0 0.184-0.149 0.333-0.333 0.333v0z"/>
            <path  d="M27.667 21.667h-0.667v-8h0.667c1.473 0 2.667 1.194 2.667 2.667v0 2.667c0 1.473-1.194 2.667-2.667 2.667v0z"/>
            <path  d="M28.299 21.925c-0.184-0-0.333-0.149-0.333-0.333 0-0.156 0.108-0.287 0.253-0.324l0.002-0c1.029-0.255 1.779-1.171 1.779-2.261 0-0.002 0-0.004 0-0.006v0-2.667c0-1.053-0.709-1.98-1.725-2.253-0.143-0.040-0.247-0.169-0.247-0.322 0-0.184 0.149-0.333 0.333-0.333 0.031 0 0.061 0.004 0.089 0.012l-0.002-0.001c1.288 0.358 2.217 1.519 2.219 2.897v2.667c0 0.002 0 0.005 0 0.007 0 1.403-0.965 2.58-2.268 2.904l-0.021 0.004c-0.024 0.006-0.051 0.009-0.079 0.009h-0z"/>
            <path  d="M27.667 21c-0.184 0-0.333-0.149-0.333-0.333v0-6c0-0.184 0.149-0.333 0.333-0.333s0.333 0.149 0.333 0.333v0 6c0 0.184-0.149 0.333-0.333 0.333v0z"/>
            <path  d="M26 23h-0.667c-0.552 0-1-0.448-1-1v0-8.667c0-0.552 0.448-1 1-1v0h0.667c0.552 0 1 0.448 1 1v0 8.667c0 0.552-0.448 1-1 1v0z"/>
            <path  d="M26 23.333h-0.667c-0.735 0-1.333-0.598-1.333-1.333v-8.667c0-0.735 0.598-1.333 1.333-1.333h0.667c0.735 0 1.333 0.598 1.333 1.333v8.667c0 0.735-0.598 1.333-1.333 1.333zM25.333 12.667c-0.367 0-0.667 0.299-0.667 0.667v8.667c0 0.367 0.299 0.667 0.667 0.667h0.667c0.367 0 0.667-0.299 0.667-0.667v-8.667c0-0.367-0.299-0.667-0.667-0.667h-0.667z"/>
            <path d="M25 21.667c-0.184 0-0.333-0.149-0.333-0.333v0-8c0-0.367 0.299-0.667 0.667-0.667h0.333c0.184 0 0.333 0.149 0.333 0.333s-0.149 0.333-0.333 0.333v0h-0.333v8c0 0.184-0.149 0.333-0.333 0.333v0z"/>
        </symbol>
        <symbol id="icon-contract" viewBox="0 0 32 32">
            <path d="M8.002 0c-1.655 0-3 1.347-3 3.001v20.996h-4.504c-0.275 0.001-0.498 0.225-0.498 0.5 0 0.001 0 0.002 0 0.003v-0 4.499c0 1.654 1.349 3.001 3.002 3.001h23.505c0.001 0 0.001 0 0.002 0 1.654 0 2.995-1.341 2.995-2.995 0-0.002 0-0.004 0-0.006v0-3.499h1.994c0.001 0 0.001 0 0.002 0 0.276 0 0.5-0.224 0.5-0.5 0-0.001 0-0.001 0-0.002v0-8.501c-0.001-0.275-0.225-0.498-0.5-0.498-0.001 0-0.001 0-0.002 0h-1.994v-8.997h1.001c0.001 0 0.001 0 0.002 0 0.276 0 0.5-0.224 0.5-0.5 0-0.001 0-0.001 0-0.002v0-3.499c0-1.653-1.349-3.001-3.002-3.001zM8.002 1c0.004-0 0.008-0 0.013-0 1.097 0 1.986 0.889 1.986 1.986 0 0.005-0 0.010-0 0.015v-0.001 3.499c0 0.001 0 0.001 0 0.002 0 0.276 0.224 0.5 0.5 0.5 0.001 0 0.001 0 0.002 0h18.004v9.495c-0.45-0.090-0.922-0.299-1.317-0.457-0.529-0.215-1.158-0.479-1.827-0.744l1.377-2.385c0.124-0.214 0.198-0.472 0.198-0.746 0-0.553-0.297-1.036-0.741-1.298l-0.007-0.004-0.867-0.498c-0.712-0.412-1.639-0.166-2.050 0.546l-3.358 5.814-4.41 2.546c-0.953 0.55-1.284 1.779-0.735 2.732 0.283 0.483 0.749 0.832 1.3 0.954l0.013 0.002c-0.048 0.161-0.076 0.347-0.077 0.539v0c-0.143 0.298-0.175 0.628-0.226 0.922-0.117 0.887-0.18 1.7-0.245 2.58l-1.904 0.001c-0.262-0.296-0.603-0.505-1.131-0.492-0.185 0.017-0.357 0.058-0.517 0.12l0.013-0.004c-0.162-0.416-0.412-0.727-0.807-0.965-0.644-0.372-1.451-0.299-2.090 0.126-0.624 0.422-1.042 1.108-1.095 1.893l-0 0.008c-0.003 0.019-0.004 0.041-0.004 0.063 0 0.276 0.224 0.5 0.5 0.5s0.5-0.224 0.5-0.5c0-0 0-0 0-0.001v0c0.028-0.44 0.287-0.889 0.653-1.133 0.367-0.245 0.752-0.253 1.037-0.089s0.463 0.502 0.435 0.942c-0.035 0.481 0.566 0.729 0.88 0.362 0.143-0.163 0.364-0.302 0.517-0.321 0.084-0.010 0.255-0.021 0.45 0.27 0.091 0.134 0.242 0.221 0.413 0.221h2.575c0.106 0.010 0.218-0.015 0.32-0.082 1.029-0.698 2.242-1.512 2.91-2.108 0.107-0.098 0.188-0.17 0.274-0.309h4.045c1.471 0 3.242-0.419 4.998-0.491v3.99c0 1.1-0.884 2-2 2h-21.265c0.471-0.53 0.759-1.231 0.76-2v-25.998c-0-0.005-0-0.011-0-0.017 0-1.096 0.888-1.984 1.984-1.984 0.006 0 0.011 0 0.017 0h-0.001zM8.502 8.998c-0.007-0-0.014-0.001-0.022-0.001-0.277 0-0.501 0.224-0.501 0.501s0.224 0.501 0.501 0.501c0.008 0 0.016-0 0.023-0.001l-0.001 0h12.253c0.276 0 0.5-0.224 0.5-0.501s-0.224-0.501-0.5-0.501v0zM8.502 11.999c-0.276 0-0.5 0.224-0.5 0.5s0.224 0.5 0.5 0.5v0h10.001c0.276 0 0.5-0.224 0.5-0.5s-0.224-0.5-0.5-0.5v0zM22.891 13.576l1.732 1-4 6.923h-2.307zM8.502 15c-0.007-0-0.014-0.001-0.022-0.001-0.276 0-0.5 0.224-0.5 0.5s0.224 0.5 0.5 0.5c0.008 0 0.016-0 0.023-0.001l-0.001 0h7.753c0.276 0 0.5-0.224 0.5-0.499s-0.224-0.499-0.5-0.499v0zM24.857 16.169c0.703 0.277 1.377 0.562 1.953 0.797 0.538 0.233 1.394 0.556 1.698 0.532v6.509c-1.904 0.068-3.721 0.493-4.998 0.493h-5.501c-0.563 0-1-0.439-1-1.001s0.437-1 1-1h3.995c0.276 0 0.5-0.224 0.5-0.5s-0.224-0.5-0.5-0.5v0h-0.225zM8 18.498c0 0.001 0 0.001 0 0.002 0 0.276 0.224 0.5 0.5 0.5 0.001 0 0.001 0 0.002 0h5.501c0.276 0 0.5-0.224 0.5-0.5s-0.224-0.5-0.5-0.5v0h-5.514c-0.277 0.012-0.489 0.23-0.489 0.498zM18.917 18.451l-1.914 3.316c-0.102 0.060-0.201 0.137-0.306 0.216-0.419 0.075-0.838-0.098-1.059-0.48-0.087-0.145-0.139-0.32-0.139-0.507 0-0.368 0.201-0.69 0.499-0.861l0.005-0.003zM8.51 22.997c-0.276 0-0.5 0.224-0.5 0.5s0.224 0.5 0.5 0.5v0h4.994c0.276 0 0.5-0.224 0.5-0.5s-0.224-0.5-0.5-0.5v0zM16.713 25.020c0.345 0.295 0.789 0.474 1.273 0.48-0.366 0.28-0.824 0.609-1.291 0.927l-0.116 0.074c0.033-0.537 0.075-0.933 0.133-1.48z"/>
        </symbol>
        <symbol id="icon-laboratory" viewBox="0 0 32 32">
            <path d="M15.992 24.679c-1.103 0-1.997-0.894-1.998-1.996v-9.054c1.41 0.741 2.782-0.79 3.995 0v9.054c0 1.103-0.894 1.997-1.996 1.997v0z"/>
            <path d="M16.901 24.012c-1.103 0-1.997-0.894-1.998-1.996v-8.178c-0.3 0.005-0.604-0.048-0.909-0.209v9.054c0.001 1.103 0.895 1.997 1.998 1.997 0 0 0 0 0 0v0c0.001 0 0.001 0 0.002 0 0.644 0 1.216-0.305 1.581-0.779l0.003-0.005c-0.2 0.074-0.431 0.117-0.672 0.117-0.002 0-0.004 0-0.006 0h0z"/>
            <path d="M16.058 25.236c-1.303 0-2.363-1.060-2.363-2.363v-18.432c0-0 0-0.001 0-0.002 0-0.172 0.139-0.311 0.311-0.311 0.001 0 0.001 0 0.002 0h4.102c0 0 0.001 0 0.002 0 0.172 0 0.311 0.139 0.311 0.311 0 0.001 0 0.001 0 0.002v-0 18.432c0 1.303-1.060 2.363-2.363 2.363zM14.319 4.753v18.12c0 0.96 0.779 1.739 1.739 1.739s1.739-0.779 1.739-1.739v-18.12z"/>
            <path d="M18.621 4.753h-5.126c-0.499 0-0.904-0.405-0.904-0.904s0.405-0.904 0.904-0.904h5.126c0.499 0 0.904 0.405 0.904 0.904s-0.405 0.904-0.904 0.904v0zM13.495 3.57c-0.154 0-0.279 0.125-0.279 0.279s0.125 0.279 0.279 0.279h5.126c0.154 0 0.279-0.125 0.279-0.279s-0.125-0.279-0.279-0.279v0zM17.971 6.945h-1.080c-0.172 0-0.312-0.14-0.312-0.312s0.14-0.312 0.312-0.312v0h1.080c0.172 0 0.312 0.14 0.312 0.312s-0.14 0.312-0.312 0.312v0zM17.971 9.628h-1.080c-0.172 0-0.312-0.14-0.312-0.312s0.14-0.312 0.312-0.312v0h1.080c0.172 0 0.312 0.14 0.312 0.312s-0.14 0.312-0.312 0.312v0zM17.971 12.311h-1.080c-0.172 0-0.312-0.14-0.312-0.312s0.14-0.312 0.312-0.312v0h1.080c0.172 0 0.312 0.14 0.312 0.312s-0.14 0.312-0.312 0.312v0zM17.971 14.995h-1.080c-0.172 0-0.312-0.14-0.312-0.312s0.14-0.312 0.312-0.312v0h1.080c0.172 0 0.312 0.14 0.312 0.312s-0.14 0.312-0.312 0.312v0zM17.971 17.678h-1.080c-0.172 0-0.312-0.14-0.312-0.312s0.14-0.312 0.312-0.312v0h1.080c0.172 0 0.312 0.14 0.312 0.312s-0.14 0.312-0.312 0.312v0zM17.971 20.36h-1.080c-0.172 0-0.312-0.14-0.312-0.312s0.14-0.312 0.312-0.312v0h1.080c0.172 0 0.312 0.14 0.312 0.312s-0.14 0.312-0.312 0.312v0zM17.971 23.043h-1.080c-0.172 0-0.312-0.14-0.312-0.312s0.14-0.312 0.312-0.312v0h1.080c0.172 0 0.312 0.14 0.312 0.312s-0.14 0.312-0.312 0.312v0z"/>
            <path d="M16.389 20.797c0 0.166-0.135 0.301-0.301 0.301s-0.301-0.135-0.301-0.301c0-0.166 0.135-0.301 0.301-0.301s0.301 0.135 0.301 0.301z"/>
            <path d="M15.786 17.906c0 0.126-0.102 0.228-0.228 0.228s-0.228-0.102-0.228-0.228c0-0.126 0.102-0.228 0.228-0.228s0.228 0.102 0.228 0.228z"/>
            <path d="M17.283 16.265c0 0.247-0.201 0.448-0.448 0.448s-0.448-0.201-0.448-0.448c0-0.247 0.201-0.448 0.448-0.448s0.448 0.201 0.448 0.448z"/>
            <path  d="M16.389 15.313c0 0.11-0.089 0.198-0.198 0.198s-0.198-0.089-0.198-0.198c0-0.11 0.089-0.198 0.198-0.198s0.198 0.089 0.198 0.198z"/>
            <path  d="M17.122 18.946c0 0.203-0.164 0.367-0.367 0.367s-0.367-0.164-0.367-0.367c0-0.203 0.164-0.367 0.367-0.367s0.367 0.164 0.367 0.367z"/>
            <path  d="M15.707 19.281c0 0.070-0.057 0.126-0.126 0.126s-0.126-0.057-0.126-0.126c0-0.070 0.057-0.126 0.126-0.126s0.126 0.057 0.126 0.126z"/>
            <path  d="M15.708 22.703c0 0.104-0.085 0.189-0.189 0.189s-0.189-0.085-0.189-0.189c0-0.104 0.085-0.189 0.189-0.189s0.189 0.085 0.189 0.189z"/>
            <path  d="M8.526 24.679c-1.103 0-1.997-0.894-1.997-1.997v0-9.054c1.41 0.741 2.78-0.79 3.995 0v9.054c-0.001 1.103-0.895 1.997-1.998 1.997 0 0 0 0 0 0v0z"/>
            <path  d="M9.435 24.012c-1.103 0-1.997-0.894-1.997-1.997v0-8.178c-0.301 0.005-0.604-0.048-0.909-0.209v9.054c0 1.103 0.894 1.997 1.997 1.997v0c0.001 0 0.002 0 0.002 0 0.644 0 1.217-0.305 1.582-0.779l0.003-0.005c-0.2 0.074-0.432 0.117-0.673 0.117-0.002 0-0.004 0-0.006 0h0z"/>
            <path d="M8.593 25.236c-1.303 0-2.365-1.060-2.365-2.363v-18.432c0-0.172 0.14-0.312 0.312-0.312v0h4.104c0.172 0 0.312 0.14 0.312 0.312v0 18.432c0 1.303-1.061 2.363-2.363 2.363zM6.853 4.753v18.12c0 0.958 0.78 1.739 1.74 1.739 0.96-0.002 1.737-0.779 1.739-1.739v-18.12z"/>
            <path d="M11.155 4.753h-5.125c-0.499 0-0.904-0.405-0.904-0.904s0.405-0.904 0.904-0.904h5.125c0.499 0 0.904 0.405 0.904 0.904s-0.405 0.904-0.904 0.904v0zM6.030 3.57c-0.154 0-0.279 0.125-0.279 0.279s0.125 0.279 0.279 0.279h5.125c0.154 0 0.279-0.125 0.279-0.279s-0.125-0.279-0.279-0.279v0zM10.507 6.945h-1.080c-0.172 0-0.312-0.14-0.312-0.312s0.14-0.312 0.312-0.312v0h1.080c0.172 0 0.312 0.14 0.312 0.312s-0.14 0.312-0.312 0.312v0zM10.507 9.628h-1.080c-0.172 0-0.312-0.14-0.312-0.312s0.14-0.312 0.312-0.312v0h1.080c0.172 0 0.312 0.14 0.312 0.312s-0.14 0.312-0.312 0.312v0zM10.507 12.311h-1.080c-0.172 0-0.312-0.14-0.312-0.312s0.14-0.312 0.312-0.312v0h1.080c0.172 0 0.312 0.14 0.312 0.312s-0.14 0.312-0.312 0.312v0zM10.507 14.995h-1.080c-0.172 0-0.312-0.14-0.312-0.312s0.14-0.312 0.312-0.312v0h1.080c0.172 0 0.312 0.14 0.312 0.312s-0.14 0.312-0.312 0.312v0zM10.507 17.678h-1.080c-0.172 0-0.312-0.14-0.312-0.312s0.14-0.312 0.312-0.312v0h1.080c0.172 0 0.312 0.14 0.312 0.312s-0.14 0.312-0.312 0.312v0zM10.507 20.36h-1.080c-0.172 0-0.312-0.14-0.312-0.312s0.14-0.312 0.312-0.312v0h1.080c0.172 0 0.312 0.14 0.312 0.312s-0.14 0.312-0.312 0.312v0zM10.507 23.043h-1.080c-0.172 0-0.312-0.14-0.312-0.312s0.14-0.312 0.312-0.312v0h1.080c0.172 0 0.312 0.14 0.312 0.312s-0.14 0.312-0.312 0.312v0z"/>
            <path  d="M8.924 20.797c0 0.166-0.135 0.301-0.301 0.301s-0.301-0.135-0.301-0.301c0-0.166 0.135-0.301 0.301-0.301s0.301 0.135 0.301 0.301z"/>
            <path  d="M8.322 17.906c0 0.126-0.102 0.228-0.228 0.228s-0.228-0.102-0.228-0.228c0-0.126 0.102-0.228 0.228-0.228s0.228 0.102 0.228 0.228z"/>
            <path  d="M9.819 16.265c0 0.247-0.201 0.448-0.448 0.448s-0.448-0.201-0.448-0.448c0-0.247 0.201-0.448 0.448-0.448s0.448 0.201 0.448 0.448z"/>
            <path  d="M8.923 15.313c0 0.11-0.089 0.198-0.198 0.198s-0.198-0.089-0.198-0.198c0-0.11 0.089-0.198 0.198-0.198s0.198 0.089 0.198 0.198z"/>
            <path  d="M9.658 18.946c0 0.203-0.164 0.367-0.367 0.367s-0.367-0.164-0.367-0.367c0-0.203 0.164-0.367 0.367-0.367s0.367 0.164 0.367 0.367z"/>
            <path  d="M8.242 19.281c0 0.070-0.057 0.126-0.126 0.126s-0.126-0.057-0.126-0.126c0-0.070 0.057-0.126 0.126-0.126s0.126 0.057 0.126 0.126z"/>
            <path  d="M8.242 22.703c0 0.104-0.085 0.189-0.189 0.189s-0.189-0.085-0.189-0.189c0-0.104 0.085-0.189 0.189-0.189s0.189 0.085 0.189 0.189z"/>
            <path  d="M23.457 24.679c-1.103 0-1.997-0.894-1.998-1.996v-9.054c1.41 0.741 2.782-0.79 3.996 0v9.054c-0.001 1.103-0.895 1.997-1.998 1.997 0 0 0 0 0 0v0z"/>
            <path  d="M24.365 24.012c-1.103 0-1.997-0.894-1.998-1.996v-8.178c-0.3 0.005-0.603-0.048-0.909-0.209v9.054c0.001 1.103 0.895 1.997 1.998 1.997 0 0 0 0 0 0v0c0.001 0 0.002 0 0.002 0 0.644 0 1.217-0.305 1.582-0.779l0.003-0.005c-0.2 0.074-0.432 0.117-0.673 0.117-0.002 0-0.004 0-0.006 0h0z"/>
            <path d="M23.522 25.236c-1.303 0-2.363-1.060-2.363-2.363v-18.432c0-0.172 0.14-0.312 0.312-0.312v0h4.102c0 0 0.001 0 0.002 0 0.172 0 0.311 0.139 0.311 0.311 0 0.001 0 0.001 0 0.002v-0 18.432c0 1.303-1.060 2.363-2.363 2.363zM21.783 4.753v18.12c0 0.96 0.779 1.739 1.739 1.739s1.739-0.779 1.739-1.739v0-18.12z"/>
            <path d="M26.085 4.753h-5.125c-0.499 0-0.904-0.405-0.904-0.904s0.405-0.904 0.904-0.904h5.125c0.499 0 0.904 0.405 0.904 0.904s-0.405 0.904-0.904 0.904v0zM20.961 3.57c-0.154 0-0.279 0.125-0.279 0.279s0.125 0.279 0.279 0.279h5.125c0.154 0 0.279-0.125 0.279-0.279s-0.125-0.279-0.279-0.279v0zM25.438 6.945h-1.082c-0.172 0-0.312-0.14-0.312-0.312s0.14-0.312 0.312-0.312v0h1.082c0.172 0 0.312 0.14 0.312 0.312s-0.14 0.312-0.312 0.312v0zM25.438 9.628h-1.082c-0.172 0-0.312-0.14-0.312-0.312s0.14-0.312 0.312-0.312v0h1.082c0.172 0 0.312 0.14 0.312 0.312s-0.14 0.312-0.312 0.312v0zM25.438 12.311h-1.082c-0.172 0-0.312-0.14-0.312-0.312s0.14-0.312 0.312-0.312v0h1.082c0.172 0 0.312 0.14 0.312 0.312s-0.14 0.312-0.312 0.312v0zM25.438 14.995h-1.082c-0.172 0-0.312-0.14-0.312-0.312s0.14-0.312 0.312-0.312v0h1.082c0.172 0 0.312 0.14 0.312 0.312s-0.14 0.312-0.312 0.312v0zM25.438 17.678h-1.082c-0.172 0-0.312-0.14-0.312-0.312s0.14-0.312 0.312-0.312v0h1.082c0.172 0 0.312 0.14 0.312 0.312s-0.14 0.312-0.312 0.312v0zM25.438 20.36h-1.082c-0.172 0-0.312-0.14-0.312-0.312s0.14-0.312 0.312-0.312v0h1.082c0.172 0 0.312 0.14 0.312 0.312s-0.14 0.312-0.312 0.312v0zM25.438 23.043h-1.082c-0.172 0-0.312-0.14-0.312-0.312s0.14-0.312 0.312-0.312v0h1.082c0.172 0 0.312 0.14 0.312 0.312s-0.14 0.312-0.312 0.312v0z"/>
            <path  d="M4.708 27.045h-1.282c-0 0-0.001 0-0.002 0-0.172 0-0.311-0.139-0.311-0.311 0-0.001 0-0.001 0-0.002v0-19.2c0-0.172 0.14-0.312 0.312-0.312v0h1.282c0.172 0.001 0.311 0.14 0.312 0.312v19.2c0 0.172-0.14 0.312-0.312 0.312v0zM28.689 27.045h-1.282c-0.172 0-0.312-0.14-0.312-0.312v0-19.2c0.001-0.172 0.14-0.311 0.312-0.312h1.282c0.172 0 0.312 0.14 0.312 0.312v0 19.2c0 0 0 0.001 0 0.002 0 0.172-0.139 0.311-0.311 0.311-0.001 0-0.001 0-0.002 0h0z"/>
            <path d="M4.037 26.007c-0.154 0-0.279-0.125-0.279-0.279v0-17.189c0-0.154 0.125-0.279 0.279-0.279v0h0.983v-0.726c-0.001-0.172-0.14-0.311-0.312-0.312h-1.282c-0.172 0-0.312 0.14-0.312 0.312v0 19.2c0 0 0 0.001 0 0.002 0 0.172 0.139 0.311 0.311 0.311 0.001 0 0.001 0 0.002 0h1.281c0.172 0 0.312-0.14 0.312-0.312v0-0.726zM28.096 26.007c-0.154 0-0.279-0.125-0.279-0.279v0-17.189c0-0.154 0.125-0.279 0.279-0.279v0h0.905v-0.726c0-0.172-0.14-0.312-0.312-0.312v0h-1.282c-0.172 0.001-0.311 0.14-0.312 0.312v19.2c0 0.172 0.14 0.312 0.312 0.312v0h1.282c0 0 0.001 0 0.002 0 0.172 0 0.311-0.139 0.311-0.311 0-0.001 0-0.001 0-0.002v0-0.726z"/>
            <path  d="M29.833 7.845h-27.771c-0 0-0.001 0-0.002 0-0.172 0-0.311-0.139-0.311-0.311 0-0.001 0-0.001 0-0.002v0-1.282c0-0.172 0.14-0.312 0.312-0.312v0h27.771c0.172 0.001 0.311 0.14 0.312 0.312v1.282c0 0.172-0.14 0.312-0.312 0.312v0z"/>
            <path d="M3.17 7.221c-0.172 0-0.312-0.14-0.312-0.312v0-0.969h-0.796c-0.172 0-0.312 0.14-0.312 0.312v0 1.282c0 0 0 0.001 0 0.002 0 0.172 0.139 0.311 0.311 0.311 0.001 0 0.001 0 0.002 0h27.771c0.172 0 0.312-0.14 0.312-0.312v0-0.312z"/>
            <path  d="M29.938 29.054h-27.76c-0.172 0-0.312-0.14-0.312-0.312v0-2.009c0-0.172 0.14-0.312 0.312-0.312v0h27.76c0.172 0 0.312 0.14 0.312 0.312v0 2.009c0 0.172-0.14 0.312-0.312 0.312v0z"/>
            <path d="M3.551 28.252c-0.172-0.001-0.311-0.14-0.312-0.312v-1.519h-1.061c-0.172 0-0.312 0.14-0.312 0.312v0 2.009c0 0.172 0.14 0.312 0.312 0.312v0h27.76c0.172 0 0.312-0.14 0.312-0.312v0-0.49z"/>
            <path  d="M9.147 26.421h18.017c0.306 0 0.554 0.248 0.554 0.554v0.001c0 0.306-0.248 0.554-0.554 0.554h-18.017c-0.306 0-0.554-0.248-0.554-0.554v-0.001c0-0.306 0.248-0.554 0.554-0.554z"/>
            <path  d="M28.635 11.522h-0.002c0.203 0 0.368 0.165 0.368 0.368v10.472c0 0.203-0.165 0.368-0.368 0.368h0.002c-0.203 0-0.368-0.165-0.368-0.368v-10.472c0-0.203 0.165-0.368 0.368-0.368z"/>
            <path  d="M4.652 12.834h0.002c0.203 0 0.367 0.164 0.367 0.367v11.111c0 0.203-0.164 0.367-0.367 0.367h-0.002c-0.203 0-0.367-0.164-0.367-0.367v-11.111c0-0.203 0.164-0.367 0.367-0.367z"/>
            <path  d="M7.964 5.939h18.006c0.263 0 0.476 0.213 0.476 0.476v0.001c0 0.263-0.213 0.476-0.476 0.476h-18.006c-0.263 0-0.476-0.213-0.476-0.476v-0.001c0-0.263 0.213-0.476 0.476-0.476z"/>
            <path  d="M23.853 20.797c0 0.166-0.135 0.301-0.301 0.301s-0.301-0.135-0.301-0.301c0-0.166 0.135-0.301 0.301-0.301s0.301 0.135 0.301 0.301z"/>
            <path  d="M23.252 17.906c0 0.126-0.102 0.228-0.228 0.228s-0.228-0.102-0.228-0.228c0-0.126 0.102-0.228 0.228-0.228s0.228 0.102 0.228 0.228z"/>
            <path  d="M24.749 16.265c0 0.247-0.201 0.448-0.448 0.448s-0.448-0.201-0.448-0.448c0-0.247 0.201-0.448 0.448-0.448s0.448 0.201 0.448 0.448z"/>
            <path  d="M23.853 15.313c0 0.11-0.089 0.198-0.198 0.198s-0.198-0.089-0.198-0.198c0-0.11 0.089-0.198 0.198-0.198s0.198 0.089 0.198 0.198z"/>
            <path  d="M24.587 18.946c0 0.203-0.164 0.367-0.367 0.367s-0.367-0.164-0.367-0.367c0-0.203 0.164-0.367 0.367-0.367s0.367 0.164 0.367 0.367z"/>
            <path  d="M23.171 19.281c0 0.070-0.057 0.126-0.126 0.126s-0.126-0.057-0.126-0.126c0-0.070 0.057-0.126 0.126-0.126s0.126 0.057 0.126 0.126z"/>
            <path  d="M23.173 22.703c0 0.104-0.085 0.189-0.189 0.189s-0.189-0.085-0.189-0.189c0-0.104 0.085-0.189 0.189-0.189s0.189 0.085 0.189 0.189z"/>
        </symbol>
        <symbol id="icon-paper" viewBox="0 0 32 32">
            <path d="M27.348 21.751h-3.2l-0 5.651c0 1.071-0.858 1.944-1.922 1.971 0.061 0.023 0.126 0.038 0.195 0.038h7.312c0.301 0 0.545-0.244 0.545-0.545v0-7.45c0-0.301-0.244-0.545-0.545-0.545v0h-0.743c-0.354 0.53-0.958 0.879-1.641 0.879zM29.050 15.93v-0.003c-0.009 0.003-0.018 0.007-0.027 0.010l0.027-0.007z"/>
            <path d="M25.629 18.075h-3.456c-0.47 0.001-0.895 0.191-1.204 0.499l0-0c-0.307 0.309-0.497 0.734-0.499 1.203v7.626c0 0.94 0.762 1.702 1.702 1.702s1.702-0.762 1.702-1.702l0-5.924h3.474c0.939-0.001 1.7-0.763 1.7-1.702h0v-1.82h-3.431l0.009 0.118z"/>
            <path d="M18.97 27.402v-5.924h1.228v-1.702c0-0.52 0.211-1.029 0.579-1.396 0.117-0.116 0.248-0.217 0.392-0.301l0.009-0.005h-3.91c-0.339 0-0.673 0.105-0.953 0.293 0.005 0.005 0.010 0.008 0.014 0.013 0.356 0.358 0.577 0.851 0.578 1.396v7.626c0 0.552-0.228 1.051-0.594 1.409 0.267 0.183 0.597 0.293 0.952 0.293 0.001 0 0.002 0 0.003 0h-0c0.94 0 1.702-0.762 1.702-1.702z"/>
            <path d="M27.364 5.651c0 1.692-1.372 3.064-3.064 3.064s-3.064-1.372-3.064-3.064c0-1.692 1.372-3.064 3.064-3.064s3.064 1.372 3.064 3.064z"/>
            <path d="M2.879 17.111v-0.789h-2.879v1.226h2.879v-0.437zM10.789 16.322h20.87v1.226h-20.87zM12.368 28.867v-7.116h-7.514c-0.319 0-0.62-0.078-0.887-0.213v7.329c0 0.301 0.244 0.545 0.545 0.545v0h7.312c0.301 0 0.545-0.244 0.545-0.545zM7.821 2.61c-1.692 0-3.064 1.372-3.064 3.064 0 0.001 0 0.003 0 0.004 0 0.704 0.238 1.352 0.639 1.868l-0.005-0.007h4.073c0.062 0 0.124 0.005 0.189 0.014 0.055-0.006 0.104-0.009 0.151-0.009h0.023c0.128 0 0.258 0.016 0.385 0.045 0.419-0.518 0.673-1.185 0.673-1.911 0-0.001 0-0.003 0-0.004v0c0-1.692-1.372-3.064-3.064-3.064z"/>
            <path d="M2.879 13.053c-0.267-0.207-0.38-0.385-0.436-0.526l-0-0.001c-0.028-0.074-0.041-0.148-0.047-0.227-0.002-0.021-0.006-0.041-0.006-0.063-0.001-0.188 0.063-0.438 0.208-0.712 0.131-0.253 0.331-0.517 0.554-0.751v9.002c0 0.94 0.762 1.702 1.702 1.702h8.377v5.924c0 0.94 0.762 1.702 1.702 1.702s1.702-0.762 1.702-1.702v-7.626c0-0.448-0.181-0.887-0.498-1.204-0.309-0.307-0.734-0.497-1.203-0.498h-4.416v-2.997c0.46 0.459 1.007 0.655 1.489 0.776 0.549 0.131 1.064 0.156 1.461 0.157 0.405-0 0.684-0.030 0.712-0.034 0.548-0.062 0.971-0.523 0.971-1.083 0-0.042-0.002-0.083-0.007-0.124l0 0.005c-0.062-0.548-0.523-0.97-1.083-0.97-0.042 0-0.084 0.002-0.124 0.007l0.005-0c-0.024 0.002-0.216 0.020-0.474 0.020-0.287 0.001-0.659-0.025-0.95-0.097-0.299-0.066-0.469-0.191-0.47-0.207-0.192-0.234-0.338-0.599-0.42-1.074-0.129-0.711-0.096-1.589-0.13-2.385-0.025-0.405-0.045-0.79-0.225-1.244-0.094-0.224-0.248-0.485-0.52-0.695-0.269-0.213-0.638-0.32-0.947-0.314-0.053 0-0.105 0.005-0.155 0.012-0.055-0.011-0.119-0.017-0.184-0.017h-5.261c-0.082 0-0.162 0.010-0.239 0.028-0.419 0.057-0.756 0.217-1.105 0.409-0.62 0.36-1.229 0.886-1.735 1.549-0.496 0.661-0.907 1.475-0.914 2.439 0 0.054 0.004 0.108 0.007 0.163 0.016 0.319 0.081 0.617 0.187 0.896l-0.007-0.020c0.005 0.014 0.008 0.028 0.014 0.042v-0c0.273 0.707 0.83 1.316 1.591 1.775 0.265 0.16 0.557 0.305 0.876 0.438l-0-2.476zM16.938 16.189l0.473-0.487c0.163 0.149 0.374 0.249 0.607 0.276l0.005 0c0.029 0.003 0.307 0.033 0.712 0.034 0.397-0.001 0.912-0.026 1.461-0.157 0.482-0.121 1.028-0.317 1.489-0.776v0.836h2.042l0.683-5.035c0.177 0.066 0.363 0.101 0.548 0.101h0.001c0.186 0 0.371-0.035 0.548-0.101l0.449 3.305c0.194-0.224 0.459-0.383 0.759-0.442l0.009-0.001c1.192-0.23 1.856-0.531 2.203-0.743 0.045-0.028 0.086-0.055 0.125-0.081v-2.141c0.223 0.234 0.423 0.498 0.554 0.751 0.145 0.274 0.209 0.523 0.208 0.712-0 0.022-0.004 0.042-0.006 0.063-0.006 0.079-0.019 0.152-0.047 0.227l-0 0.001c-0.019 0.045-0.037 0.082-0.058 0.117l0.003-0.005c-0.092 0.163-0.266 0.362-0.636 0.589-0.456 0.279-1.201 0.568-2.293 0.778-0.506 0.1-0.882 0.541-0.882 1.069 0 0.073 0.007 0.145 0.021 0.214l-0.001-0.007c0.101 0.521 0.557 0.882 1.068 0.882 0.069 0 0.139-0.007 0.208-0.020 1.266-0.246 2.245-0.592 3.010-1.055 0.394-0.238 0.733-0.517 1.007-0.828 0.254-0.289 0.453-0.606 0.584-0.947v0c0.005-0.014 0.009-0.028 0.014-0.042 0.099-0.258 0.164-0.557 0.18-0.868l0-0.007c0.003-0.054 0.007-0.109 0.007-0.163-0.007-0.965-0.418-1.778-0.914-2.439-0.505-0.663-1.115-1.189-1.735-1.549-0.348-0.192-0.686-0.351-1.105-0.409-0.072-0.018-0.154-0.028-0.239-0.028h-1.159c-0.612 0.719-1.523 1.176-2.539 1.176-0.967 0-1.84-0.414-2.45-1.075-0.144 0.052-0.282 0.124-0.4 0.218-0.272 0.21-0.427 0.471-0.52 0.695-0.181 0.455-0.2 0.84-0.225 1.244-0.034 0.796-0.001 1.673-0.13 2.385-0.082 0.475-0.228 0.84-0.42 1.074-0.001 0.016-0.17 0.141-0.47 0.207-0.133 0.033-0.283 0.056-0.434 0.071l0.658-0.677-0.391-0.38-1.045 1.076c-0.118-0.005-0.197-0.013-0.212-0.014-0.036-0.004-0.077-0.007-0.119-0.007-0.56 0-1.021 0.422-1.083 0.965l-0 0.005c-0.004 0.035-0.006 0.076-0.006 0.118 0 0.121 0.020 0.238 0.057 0.347l-0.002-0.008-0.624 0.643 0.391 0.38 0.065-0.067zM24.44 9.22h1.035l0.259 1.021-0.039 0.062c-0.198 0.166-0.455 0.267-0.736 0.267-0 0-0 0-0.001 0h0c-0 0-0 0-0.001 0-0.281 0-0.538-0.101-0.737-0.268l0.002 0.001-0.040-0.063 0.259-1.021z"/>
        </symbol>
        <symbol id="icon-surveying" viewBox="0 0 32 32">
            <path d="M17.822 17.264l-4.993 9.985v2.781l1.843-1.977 4.825-10.79h-1.675zM27.019 17.281l4.993 9.985v2.781l-1.843-1.977-4.825-10.79h1.675zM21.39 17.281v10.521l0.905 2.245 1.173-2.312v-10.454h-2.078z"/>
            <path d="M17.704 15.069h9.248c0.222 0 0.402 0.18 0.402 0.402v0.938c0 0.222-0.18 0.402-0.402 0.402h-9.248c-0.222 0-0.402-0.18-0.402-0.402v-0.938c0-0.222 0.18-0.402 0.402-0.402z"/>
            <path d="M18.866 9.976h6.053c0.198 0 0.358 0.16 0.358 0.358v2.769c0 0.198-0.16 0.358-0.358 0.358h-6.053c-0.198 0-0.358-0.16-0.358-0.358v-2.769c0-0.198 0.16-0.358 0.358-0.358z"/>
            <path d="M25.84 9.44h0.651c0.181 0 0.328 0.147 0.328 0.328v3.901c0 0.181-0.147 0.328-0.328 0.328h-0.651c-0.181 0-0.328-0.147-0.328-0.328v-3.901c0-0.181 0.147-0.328 0.328-0.328z"/>
            <path d="M24.205 13.26c0 0.851-1.005 1.541-2.245 1.541s-2.245-0.69-2.245-1.541c0-0.851 1.005-1.541 2.245-1.541s2.245 0.69 2.245 1.541z"/>
            <path d="M3.099 27.144l1.876-4.088v-4.725s-0.771-9.014 1.709-10.622"/>
            <path d="M4.892 18.315l3.954 4.691 1.273 4.121"/>
            <path d="M5.682 9.092l-4.677 4.767 3.016 4.054M6.705 7.723l3.716 4.565 5.306-0.268"/>
            <path d="M12.733 5.23c0 1.36-1.103 2.463-2.463 2.463s-2.463-1.103-2.463-2.463c0-1.36 1.103-2.463 2.463-2.463s2.463 1.103 2.463 2.463z"/>
            <path d="M9.361 2.638l3.451 3.652"/>
            <path d="M9.562 2.772s1.541-1.005 2.848 0.201 0.125 3.024 0.125 3.024z"/>
        </symbol>
        <symbol id="icon-smartphone" viewBox="0 0 20 32">
            <path d="M17 0H3C1.346 0 0 1.346 0 3v26c0 1.654 1.346 3 3 3h14c1.654 0 3-1.346 3-3V3c0-1.654-1.346-3-3-3zM3 2h14a1 1 0 0 1 1 1v21H2V3a1 1 0 0 1 1-1zm14 28H3a1 1 0 0 1-1-1v-3h16v3a1 1 0 0 1-1 1z"/>
            <path d="M4.707 27.478c.391.365.391.956 0 1.321s-1.024.365-1.414 0c-.391-.365-.391-.956 0-1.321s1.024-.365 1.414 0z"/>
        </symbol>
        <symbol id="icon-envelope" viewBox="0 0 43 32">
            <path d="M38.667 0H4C1.794 0 0 1.794 0 4v24c0 2.206 1.794 4 4 4h34.667c2.206 0 4-1.794 4-4V4c0-2.206-1.794-4-4-4zm0 2.667c.181 0 .353.038.511.103L21.334 18.236 3.49 2.77a1.32 1.32 0 0 1 .511-.103h34.667zm0 26.666H4A1.334 1.334 0 0 1 2.667 28V5.587L20.46 21.008a1.335 1.335 0 0 0 1.748 0L40.001 5.587V28c0 .736-.598 1.333-1.333 1.333z"/>
        </symbol>
        <symbol id="icon-instagram" viewBox="0 0 32 32">
            <path d="M31.969 9.408c-.075-1.7-.35-2.869-.744-3.882a7.806 7.806 0 0 0-1.851-2.838A7.867 7.867 0 0 0 26.542.844C25.523.45 24.36.175 22.66.1 20.947.019 20.403 0 16.059 0s-4.888.019-6.595.094c-1.7.075-2.869.35-3.882.744a7.803 7.803 0 0 0-2.838 1.85A7.867 7.867 0 0 0 .9 5.52C.506 6.539.231 7.702.156 9.402c-.081 1.713-.1 2.257-.1 6.601s.019 4.888.094 6.595c.075 1.7.35 2.869.744 3.882a7.895 7.895 0 0 0 1.85 2.838 7.867 7.867 0 0 0 2.832 1.844c1.019.394 2.182.669 3.882.744 1.706.075 2.25.094 6.595.094s4.888-.019 6.595-.094c1.7-.075 2.869-.35 3.882-.744a8.184 8.184 0 0 0 4.682-4.682c.394-1.019.669-2.182.744-3.882.075-1.707.094-2.251.094-6.595s-.006-4.888-.081-6.595zm-2.882 13.065c-.069 1.563-.331 2.407-.55 2.969a5.31 5.31 0 0 1-3.038 3.038c-.563.219-1.413.481-2.969.55-1.688.075-2.194.094-6.464.094s-4.782-.019-6.464-.094c-1.563-.069-2.407-.331-2.969-.55a4.926 4.926 0 0 1-1.838-1.194 4.974 4.974 0 0 1-1.194-1.838c-.219-.563-.481-1.413-.55-2.969-.075-1.688-.094-2.194-.094-6.464s.019-4.782.094-6.464c.069-1.563.331-2.407.55-2.969a4.868 4.868 0 0 1 1.2-1.838A4.974 4.974 0 0 1 6.639 3.55c.563-.219 1.413-.481 2.969-.55 1.688-.075 2.194-.094 6.464-.094 4.276 0 4.782.019 6.464.094 1.563.069 2.407.331 2.969.55a4.914 4.914 0 0 1 1.838 1.194 4.974 4.974 0 0 1 1.194 1.838c.219.563.481 1.413.55 2.969.075 1.688.094 2.194.094 6.464s-.019 4.77-.094 6.458z"/>
            <path d="M16.059 7.783c-4.538 0-8.22 3.682-8.22 8.22s3.682 8.22 8.22 8.22c4.539 0 8.22-3.682 8.22-8.22s-3.682-8.22-8.22-8.22zm0 13.552a5.333 5.333 0 0 1 0-10.664 5.333 5.333 0 0 1 0 10.664zM26.524 7.458a1.919 1.919 0 1 1-3.838 0 1.919 1.919 0 0 1 3.838 0z"/>
        </symbol>
        <symbol id="icon-land-surveyor" viewBox="0 0 18 32">
            <path d="M7.591 0.701c0.232-0.005 0.292 0.406 0.305 0.964v1.417l0 0.001c0.013 0.121 0.116 0.216 0.241 0.216s0.228-0.095 0.241-0.217v-1.43l-0 0.006c0.002-0.040 0.003-0.081 0.003-0.121 0-0.374-0.088-0.727-0.237-1.028l-0.022 0.002c0.179-0.021 0.361-0.032 0.546-0.032 0.066 0 0.131 0.001 0.187 0.004l0.013 0c0.208 0.009 0.414 0.030 0.584 0.057l0.006-0.011c-0.172 0.311-0.269 0.669-0.269 1.050 0 0.040 0.001 0.081 0.003 0.115v1.385l0.001 0.002c0.035 0.103 0.132 0.177 0.247 0.177s0.212-0.074 0.247-0.179v-1.37c0.013-0.544 0.073-0.94 0.299-0.94h0c0.031-0 0.062-0.005 0.088-0.013l0.096 0.047 0.010 0.006c0.673 0.461 1.133 1.209 1.204 2.077l0.001 0.002c0.036 0.1 0.132 0.172 0.245 0.172 0.12 0 0.222-0.082 0.252-0.194l-0-0.007c-0.051-1.086-0.695-2.016-1.633-2.483l0.019 0.009c-0.417-0.219-0.885-0.354-1.391-0.384l0.007 0c-0.047-0.002-0.093-0.003-0.14-0.003-0.456 0-0.889 0.1-1.259 0.271-0.878 0.383-1.586 1.221-1.773 2.604l0-0.001c-0.001 0.007-0.001 0.014-0.001 0.020 0 0.125 0.095 0.228 0.217 0.241l-0.001-0c0.008 0.001 0.016 0.001 0.024 0.001 0.126 0 0.231-0.089 0.255-0.209 0.232-1.182 0.734-1.898 1.302-2.224l-0.001-0c0.013 0.003 0.027 0.005 0.042 0.005s0.028-0.002 0.040-0.005zM7.706 30.893h0.406l-0.453-10.417h-0.352l-5.258 9.276h0.242c0.102 0.001 0.185 0.085 0.185 0.187 0 0 0 0 0 0v0 0.737c-0.003 0.101-0.084 0.182-0.185 0.185h-2.107c-0.102-0.001-0.183-0.083-0.185-0.185v-0.729c0-0.001-0-0.002-0-0.003 0-0.102 0.083-0.185 0.185-0.185 0 0 0 0 0 0h0.336l4.503-9.297h-1.19c-0.001 0-0.002 0-0.003 0-0.086 0-0.156-0.070-0.156-0.156 0 0 0 0 0-0v0-2.227c0-0.088 0.071-0.159 0.159-0.159v0h2.638c-0.473-0.53-0.763-1.234-0.763-2.005v-0c0-0.114 0.008-0.226 0.022-0.336l-0.001 0.013h-3.229c-0.178-0.001-0.321-0.145-0.323-0.323v-0.948l-0.615-0.109c-0.204-0.015-0.365-0.177-0.38-0.379l-0-0.001v-0.344c0.017-0.202 0.178-0.362 0.379-0.378l0.001-0 0.607-0.109v-0.948c0.001-0.179 0.147-0.323 0.325-0.323 0.002 0 0.004 0 0.006 0h12.747v-0.521c0.001-0.163 0.134-0.294 0.297-0.294 0 0 0 0 0 0h1.229c0.162 0.001 0.293 0.132 0.294 0.294v4.896c0 0.001 0 0.002 0 0.003 0 0.163-0.131 0.295-0.294 0.297h-1.229c-0.164 0-0.297-0.133-0.297-0.297v0-0.521h-3.456c0.012 0.093 0.018 0.201 0.018 0.311 0 0.004 0 0.009-0 0.013v-0.001c0 0.001 0 0.002 0 0.003 0 0.77-0.288 1.472-0.763 2.005l0.003-0.003h2.638c0 0 0 0 0 0 0.086 0 0.156 0.070 0.156 0.156 0 0.001 0 0.002-0 0.003v-0 2.237c0 0.086-0.070 0.156-0.156 0.156v0h-1.188l4.513 9.289h0.349c0.102 0.001 0.185 0.085 0.185 0.187 0 0 0 0 0 0v0 0.737c-0.003 0.101-0.084 0.182-0.185 0.185h-2.112c-0.102-0.001-0.183-0.083-0.185-0.185v-0.735c0-0.001-0-0.002-0-0.003 0-0.102 0.083-0.185 0.185-0.185 0 0 0 0 0 0h0.221l-5.26-9.297h-0.352l-0.453 10.43h0.406c0.102 0.001 0.183 0.083 0.185 0.185v0.737c-0.003 0.101-0.084 0.182-0.185 0.185h-2.107c-0.102-0.001-0.183-0.083-0.185-0.185v-0.737c0-0.102 0.083-0.185 0.185-0.185v0zM7.031 15.594c-0.022 0.099-0.034 0.213-0.034 0.33 0 0.461 0.192 0.876 0.499 1.172l0.001 0.001c0.324 0.314 0.767 0.508 1.255 0.508s0.931-0.194 1.256-0.508l-0 0c0.306-0.3 0.497-0.718 0.497-1.18v-0c0-0.001 0-0.003 0-0.005 0-0.113-0.011-0.223-0.033-0.329l0.002 0.011zM11.654 3.94l0.026 0.299c0.039 0.011 0.072 0.027 0.103 0.048l-0.001-0.001c0.049 0.035 0.088 0.079 0.116 0.131l0.001 0.002c0.034 0.063 0.058 0.136 0.067 0.213l0 0.003c0.005 0.039 0.007 0.084 0.007 0.13s-0.003 0.091-0.008 0.136l0.001-0.005c-0.010 0.099-0.026 0.187-0.047 0.274l0.003-0.013c-0.024 0.102-0.053 0.188-0.088 0.272l0.004-0.012c-0.062 0.16-0.145 0.298-0.249 0.419l0.002-0.002c-0.071 0.083-0.165 0.144-0.272 0.174l-0.004 0.001-0.021 0.073c-0.013 0.039-0.026 0.081-0.036 0.117-0.081 0.369-0.23 0.694-0.435 0.976l0.005-0.008q-0.078 0.099-0.164 0.188c-0.039 0.042-0.081 0.081-0.122 0.117 0.001 0.005 0.001 0.011 0.001 0.017s-0 0.012-0.001 0.018l0-0.001v0.781c0.027-0.012 0.059-0.019 0.092-0.019s0.065 0.007 0.094 0.020l-0.001-0.001c3.646 1.469 3.497 0.521 3.849 2.56h-11.638c0.315-2.003 0.078-1.042 3.885-2.555 0.011-0.006 0.024-0.011 0.038-0.013l0.001-0v-0.781c0.001-0.025 0.008-0.048 0.019-0.069l-0 0.001-0.070-0.065-0.128-0.138c-0.127-0.15-0.235-0.322-0.317-0.507l-0.005-0.014c-0.072-0.158-0.148-0.359-0.213-0.564l-0.011-0.040-0.031-0.112c-0.093-0.013-0.175-0.052-0.24-0.11l0 0c-0.096-0.084-0.174-0.187-0.229-0.302l-0.002-0.006c-0.042-0.083-0.081-0.179-0.109-0.28l-0.003-0.011c-0.026-0.093-0.044-0.201-0.052-0.312l-0-0.005c-0.006-0.047-0.010-0.102-0.010-0.158s0.004-0.11 0.010-0.164l-0.001 0.006c0.009-0.097 0.038-0.185 0.082-0.264l-0.002 0.003c0.032-0.050 0.072-0.092 0.118-0.124l0.001-0.001c0.028-0.017 0.061-0.031 0.096-0.041l0.003-0.001 0.029-0.279v-0.036c-0.222-0.132-0.4-0.319-0.517-0.542l-0.004-0.007 0.453-0.188c0.084 0.155 0.206 0.28 0.355 0.365l0.005 0.002c0.552 0.344 1.526 0.521 2.529 0.521 0.060 0.002 0.13 0.003 0.201 0.003 0.901 0 1.761-0.175 2.548-0.493l-0.046 0.016c0.226-0.094 0.414-0.24 0.555-0.424l0.002-0.003 0.427 0.245c-0.164 0.233-0.381 0.419-0.633 0.543l-0.010 0.004zM6.422 4.216l-0.076 0.448c-0.006 0.036-0.037 0.064-0.075 0.064-0.005 0-0.010-0-0.014-0.001l0 0h-0.029l-0.273-0.177h-0.013c-0.047 0-0.081 0-0.115 0.039-0.019 0.037-0.031 0.081-0.034 0.127l-0 0.001c-0.004 0.033-0.006 0.071-0.006 0.109s0.002 0.077 0.006 0.114l-0-0.005c0.012 0.099 0.030 0.187 0.055 0.273l-0.003-0.012c0.026 0.089 0.057 0.166 0.095 0.239l-0.003-0.007c0.035 0.077 0.082 0.143 0.14 0.198l0 0c0.021 0.020 0.049 0.032 0.081 0.032 0.005 0 0.011-0 0.016-0.001l-0.001 0c0.012-0.003 0.027-0.005 0.042-0.005 0.030 0 0.058 0.008 0.082 0.021l-0.001-0c0.039 0.020 0.068 0.054 0.080 0.095l0 0.001c0.029 0.089 0.039 0.112 0.049 0.141l0.034 0.107c0.101 0.384 0.268 0.72 0.489 1.012l-0.005-0.007c0.107 0.124 0.224 0.234 0.351 0.332l0.006 0.004c0.128 0.092 0.274 0.179 0.428 0.253l0.017 0.008 0.091 0.044 0.099 0.039c0.112 0.044 0.244 0.081 0.382 0.107l0.014 0.002c0.118 0.025 0.254 0.039 0.393 0.039h0c0.021 0.001 0.045 0.001 0.069 0.001 0.143 0 0.283-0.014 0.419-0.040l-0.014 0.002c0.171-0.036 0.321-0.083 0.464-0.144l-0.016 0.006 0.086-0.039c0.173-0.084 0.321-0.177 0.458-0.285l-0.005 0.004c0.137-0.109 0.257-0.229 0.364-0.36l0.003-0.004c0.086-0.111 0.159-0.238 0.215-0.375l0.004-0.011c0.057-0.141 0.102-0.297 0.154-0.469l0.016-0.055c0.023-0.078 0.047-0.159 0.076-0.245 0.011-0.045 0.038-0.082 0.075-0.106l0.001-0c0.027-0.016 0.059-0.025 0.093-0.025 0.009 0 0.018 0.001 0.027 0.002l-0.001-0c0.036 0 0.081-0.021 0.125-0.073 0.074-0.089 0.134-0.193 0.175-0.305l0.002-0.007c0.025-0.061 0.049-0.135 0.068-0.212l0.002-0.012c0.017-0.063 0.030-0.138 0.036-0.214l0-0.005c0.003-0.026 0.005-0.056 0.005-0.087s-0.002-0.061-0.005-0.091l0 0.004c-0.002-0.040-0.012-0.078-0.029-0.111l0.001 0.002c-0.021-0.036-0.036-0.057-0.052-0.063-0.011-0.004-0.023-0.006-0.036-0.006s-0.026 0.002-0.037 0.006l0.001-0c-0.044 0.026-0.073 0.047-0.099 0.065-0.082 0.060-0.177 0.106-0.28 0.134l-0.006 0.001c-0.006 0.002-0.013 0.003-0.020 0.003-0.035 0-0.065-0.023-0.076-0.054l-0-0.001s0 0 0-0.016l-0.049-0.443c-1.302 0.383-3.253 0.432-4.526 0zM10.242 7.745l-0.216 0.13c-0.039 0.023-0.085 0.046-0.133 0.065l-0.007 0.003c-0.166 0.082-0.36 0.152-0.562 0.199l-0.019 0.004c-0.167 0.041-0.359 0.065-0.556 0.065-0.010 0-0.019-0-0.029-0h0.001c-0.167-0.005-0.326-0.025-0.48-0.060l0.016 0.003c-0.18-0.041-0.336-0.091-0.485-0.153l0.019 0.007c-0.13-0.050-0.237-0.099-0.34-0.156l0.015 0.007c-0.11-0.056-0.201-0.109-0.289-0.168l0.010 0.006v0.555l1.531 0.589 1.531-0.445v-0.651z"/>
        </symbol>
        <symbol id="icon-meeting" viewBox="0 0 32 32">
            <path d="M26.013 12.673c0 1.105-0.895 2-2 2s-2-0.895-2-2c0-1.105 0.895-2 2-2s2 0.895 2 2z"/>
            <path d="M18 9.713c0 1.105-0.895 2-2 2s-2-0.895-2-2c0-1.105 0.895-2 2-2s2 0.895 2 2z"/>
            <path d="M19.333 16.667v-2c0-1.105-0.895-2-2-2v0h-2.667c-1.105 0-2 0.895-2 2v0 2h6.667z"/>
            <path d="M10.060 12.673c0 1.105-0.895 2-2 2s-2-0.895-2-2c0-1.105 0.895-2 2-2s2 0.895 2 2z"/>
            <path d="M25.373 15.653h-1.333c-1.104 0-2.373 0.895-2.373 2l3.627 5.053h2.053v-5.053c0-0 0-0 0-0 0-1.095-0.88-1.985-1.972-2h-0.001zM11.667 17.323l-2.127 3.343h-1.54l2.333-3.333c0-1.107-0.893-1.7-2-1.7h-1.641c-1.105 0-2 0.895-2 2v0 3.7c0 0.736 0.597 1.333 1.333 1.333v0h4.975l-0.040 0.695h-3.52l-1.44 2.617h20l-5.667-8.655h-8.667z"/>
        </symbol>
        <symbol id="icon-construction" viewBox="0 0 32 32">
            <path d="M1.5 26h-1c0 2.35 1.9 4.25 4.25 4.25h26.75v-26h-26.25v-3.75h-0.5c-2.35 0-4.25 1.9-4.25 4.25v21.25h1c0-1.8 1.45-3.25 3.25-3.25h0.5v-17.5h25.25v24h-25.75c-1.8 0-3.25-1.45-3.25-3.25zM4.25 21.775c-1.1 0.125-2.075 0.675-2.75 1.475v-18.5c0-1.625 1.2-2.975 2.75-3.2v20.225z"/>
            <path d="M25.75 7.25h-3v16.875l1.5 3 1.5-3v-16.875zM24.75 8.25v2.75h-1v-2.75h1zM24.25 24.875l-0.5-1v-11.875h1v11.875l-0.5 1zM10.5 19.25v1h2l-1.25 6.925 0.975 0.175 1.275-7.1h3l1.275 7.1 0.975-0.175-1.25-6.925h2v-1h-2.175l-0.575-3.3c0.775-0.55 1.25-1.475 1.25-2.45 0-1.475-1.075-2.725-2.5-2.95v-3.3h-1v3.3c-1.425 0.25-2.5 1.475-2.5 2.95 0 0.975 0.475 1.875 1.25 2.45l-0.575 3.3h-2.175zM14.050 15.25c-0.65-0.35-1.050-1.025-1.050-1.75 0-1.1 0.9-2 2-2s2 0.9 2 2c0 0.725-0.4 1.4-1.050 1.75l-0.325 0.175 0.7 3.825h-2.65l0.675-3.825-0.3-0.175z"/>
        </symbol>
        <symbol id="icon-telegram" viewBox="0 0 32 32">
            <path d="M32 0 0 18l10.227 3.788L26 7 14.002 23.186l.01.004-.012-.004V32l5.735-6.691L27 28l5-28z"/>
        </symbol>
        <symbol id="icon-quality" viewBox="0 0 32 32">
            <path d="M16 3.653l2.853 1.653h3.307l1.653 2.88 2.88 1.653v3.307l1.653 2.853-1.653 2.853v3.307l-2.88 1.653-1.653 2.88h-3.307l-2.853 1.653-2.853-1.653h-3.307l-1.653-2.88-2.88-1.653v-3.307l-1.653-2.853 1.653-2.853v-3.307l2.88-1.653 1.653-2.88h3.307z"/>
            <path fill="#fff" d="M16 25.040c-4.987 0-9.040-4.053-9.040-9.040s4.053-9.040 9.040-9.040 9.040 4.053 9.040 9.040-4.053 9.040-9.040 9.040zM16 7.733c-4.56 0-8.267 3.707-8.267 8.267s3.707 8.267 8.267 8.267 8.267-3.707 8.267-8.267-3.707-8.267-8.267-8.267z"/>
            <path fill="#fff" d="M15.013 19.36l-3.92-3.12c-0.32-0.267-0.373-0.72-0.107-1.040s0.72-0.373 1.040-0.107l3.36 2.693 4.48-5.013c0.267-0.293 0.747-0.32 1.040-0.053s0.32 0.747 0.053 1.040l-4.933 5.52c-0.267 0.293-0.72 0.32-1.013 0.080z"/>
        </svg>
        <symbol/>
    </defs>
</svg>